<mxfile host="65bd71144e">
    <diagram name="OBIS" id="UvOoFBBmyslhh7-m53rs">
        <mxGraphModel dx="3834" dy="1837" grid="1" gridSize="10" guides="1" tooltips="1" connect="1" arrows="1" fold="1" page="1" pageScale="1" pageWidth="1100" pageHeight="850" math="0" shadow="0">
            <root>
                <mxCell id="hc1PMB7uW3_f1QSLA8F5-0"/>
                <mxCell id="hc1PMB7uW3_f1QSLA8F5-1" parent="hc1PMB7uW3_f1QSLA8F5-0"/>
                <mxCell id="0" value="" style="edgeStyle=orthogonalEdgeStyle;rounded=0;orthogonalLoop=1;jettySize=auto;html=1;fontSize=15;" edge="1" parent="hc1PMB7uW3_f1QSLA8F5-1" source="7" target="8">
                    <mxGeometry relative="1" as="geometry"/>
                </mxCell>
                <mxCell id="1" value="" style="edgeStyle=orthogonalEdgeStyle;rounded=0;orthogonalLoop=1;jettySize=auto;html=1;fontSize=15;" edge="1" parent="hc1PMB7uW3_f1QSLA8F5-1" source="7" target="10">
                    <mxGeometry relative="1" as="geometry"/>
                </mxCell>
                <mxCell id="2" value="" style="edgeStyle=orthogonalEdgeStyle;rounded=0;orthogonalLoop=1;jettySize=auto;html=1;fontSize=15;" edge="1" parent="hc1PMB7uW3_f1QSLA8F5-1" source="7" target="10">
                    <mxGeometry relative="1" as="geometry"/>
                </mxCell>
                <mxCell id="3" style="edgeStyle=orthogonalEdgeStyle;rounded=0;orthogonalLoop=1;jettySize=auto;html=1;fontSize=15;" edge="1" parent="hc1PMB7uW3_f1QSLA8F5-1" source="7" target="22">
                    <mxGeometry relative="1" as="geometry"/>
                </mxCell>
                <mxCell id="4" style="edgeStyle=orthogonalEdgeStyle;rounded=0;orthogonalLoop=1;jettySize=auto;html=1;fontSize=15;" edge="1" parent="hc1PMB7uW3_f1QSLA8F5-1" source="7" target="13">
                    <mxGeometry relative="1" as="geometry"/>
                </mxCell>
                <mxCell id="5" style="edgeStyle=orthogonalEdgeStyle;rounded=0;orthogonalLoop=1;jettySize=auto;html=1;fontSize=15;" edge="1" parent="hc1PMB7uW3_f1QSLA8F5-1" source="7" target="17">
                    <mxGeometry relative="1" as="geometry"/>
                </mxCell>
                <mxCell id="6" style="edgeStyle=orthogonalEdgeStyle;rounded=0;orthogonalLoop=1;jettySize=auto;html=1;fontSize=15;" edge="1" parent="hc1PMB7uW3_f1QSLA8F5-1" source="7" target="15">
                    <mxGeometry relative="1" as="geometry"/>
                </mxCell>
                <mxCell id="7" value="What kind of data do&amp;nbsp; you have, or will collect?" style="rounded=0;whiteSpace=wrap;html=1;shadow=0;fillColor=#CCE5FF;fontStyle=1;fontSize=15;" vertex="1" parent="hc1PMB7uW3_f1QSLA8F5-1">
                    <mxGeometry x="-440" y="-700" width="150" height="70" as="geometry"/>
                </mxCell>
                <mxCell id="8" value="occurrence" style="rounded=1;whiteSpace=wrap;html=1;fillColor=#E6E6E6;fontSize=15;" vertex="1" parent="hc1PMB7uW3_f1QSLA8F5-1">
                    <mxGeometry x="-780" y="-550" width="120" height="60" as="geometry"/>
                </mxCell>
                <mxCell id="9" value="" style="edgeStyle=orthogonalEdgeStyle;rounded=0;orthogonalLoop=1;jettySize=auto;html=1;entryX=0.5;entryY=0;entryDx=0;entryDy=0;entryPerimeter=0;fontSize=15;" edge="1" parent="hc1PMB7uW3_f1QSLA8F5-1" source="10" target="54">
                    <mxGeometry relative="1" as="geometry">
                        <mxPoint x="81" y="-280" as="targetPoint"/>
                    </mxGeometry>
                </mxCell>
                <mxCell id="10" value="genetic" style="whiteSpace=wrap;html=1;rounded=1;fillColor=#E6E6E6;fontSize=15;" vertex="1" parent="hc1PMB7uW3_f1QSLA8F5-1">
                    <mxGeometry x="-91.5" y="-550" width="120" height="60" as="geometry"/>
                </mxCell>
                <mxCell id="11" style="edgeStyle=orthogonalEdgeStyle;rounded=0;orthogonalLoop=1;jettySize=auto;html=1;exitX=0.5;exitY=1;exitDx=0;exitDy=0;fontSize=15;" edge="1" parent="hc1PMB7uW3_f1QSLA8F5-1" source="22" target="20">
                    <mxGeometry relative="1" as="geometry"/>
                </mxCell>
                <mxCell id="12" style="edgeStyle=orthogonalEdgeStyle;rounded=0;orthogonalLoop=1;jettySize=auto;html=1;entryX=0.5;entryY=0;entryDx=0;entryDy=0;fontSize=15;" edge="1" parent="hc1PMB7uW3_f1QSLA8F5-1" source="13" target="20">
                    <mxGeometry relative="1" as="geometry">
                        <mxPoint x="-560" y="-400" as="targetPoint"/>
                    </mxGeometry>
                </mxCell>
                <mxCell id="13" value="biomass" style="whiteSpace=wrap;html=1;rounded=1;fillColor=#E6E6E6;fontSize=15;" vertex="1" parent="hc1PMB7uW3_f1QSLA8F5-1">
                    <mxGeometry x="-500" y="-550" width="120" height="60" as="geometry"/>
                </mxCell>
                <mxCell id="14" style="edgeStyle=orthogonalEdgeStyle;rounded=0;orthogonalLoop=1;jettySize=auto;html=1;exitX=0.625;exitY=1;exitDx=0;exitDy=0;exitPerimeter=0;fontSize=15;" edge="1" parent="hc1PMB7uW3_f1QSLA8F5-1" source="15" target="20">
                    <mxGeometry relative="1" as="geometry"/>
                </mxCell>
                <mxCell id="15" value="tracking" style="whiteSpace=wrap;html=1;rounded=1;fillColor=#E6E6E6;fontSize=15;" vertex="1" parent="hc1PMB7uW3_f1QSLA8F5-1">
                    <mxGeometry x="-230" y="-550" width="120" height="60" as="geometry"/>
                </mxCell>
                <mxCell id="16" style="edgeStyle=orthogonalEdgeStyle;rounded=0;orthogonalLoop=1;jettySize=auto;html=1;entryX=0.5;entryY=0;entryDx=0;entryDy=0;exitX=0.5;exitY=1;exitDx=0;exitDy=0;fontSize=15;" edge="1" parent="hc1PMB7uW3_f1QSLA8F5-1" source="17" target="20">
                    <mxGeometry relative="1" as="geometry"/>
                </mxCell>
                <mxCell id="17" value="habitat" style="whiteSpace=wrap;html=1;rounded=1;fillColor=#E6E6E6;fontSize=15;" vertex="1" parent="hc1PMB7uW3_f1QSLA8F5-1">
                    <mxGeometry x="-360" y="-550" width="120" height="60" as="geometry"/>
                </mxCell>
                <mxCell id="18" style="edgeStyle=orthogonalEdgeStyle;rounded=0;orthogonalLoop=1;jettySize=auto;html=1;fontSize=15;" edge="1" parent="hc1PMB7uW3_f1QSLA8F5-1" source="20" target="24">
                    <mxGeometry relative="1" as="geometry"/>
                </mxCell>
                <mxCell id="19" style="edgeStyle=orthogonalEdgeStyle;rounded=0;orthogonalLoop=1;jettySize=auto;html=1;fontSize=15;" edge="1" parent="hc1PMB7uW3_f1QSLA8F5-1" source="20" target="26">
                    <mxGeometry relative="1" as="geometry"/>
                </mxCell>
                <mxCell id="20" value="&lt;span class=&quot;notion-enable-hover&quot; data-token-index=&quot;0&quot;&gt;Is there more than one occurrence associated with a single sampling event (e.g. tow, core, etc)?&lt;/span&gt;" style="whiteSpace=wrap;html=1;rounded=0;fontStyle=1;fillColor=#CCE5FF;fontSize=15;" vertex="1" parent="hc1PMB7uW3_f1QSLA8F5-1">
                    <mxGeometry x="-640" y="-400" width="240" height="97" as="geometry"/>
                </mxCell>
                <mxCell id="21" value="" style="edgeStyle=orthogonalEdgeStyle;rounded=0;orthogonalLoop=1;jettySize=auto;html=1;entryX=0.5;entryY=0;entryDx=0;entryDy=0;exitX=0.5;exitY=1;exitDx=0;exitDy=0;fontSize=15;" edge="1" parent="hc1PMB7uW3_f1QSLA8F5-1" source="8" target="20">
                    <mxGeometry relative="1" as="geometry">
                        <mxPoint x="-540" y="-520" as="sourcePoint"/>
                        <mxPoint x="-420" y="-370" as="targetPoint"/>
                    </mxGeometry>
                </mxCell>
                <mxCell id="22" value="abundance, percent cover" style="whiteSpace=wrap;html=1;rounded=1;fillColor=#E6E6E6;fontSize=15;" vertex="1" parent="hc1PMB7uW3_f1QSLA8F5-1">
                    <mxGeometry x="-630" y="-550" width="120" height="60" as="geometry"/>
                </mxCell>
                <mxCell id="23" value="" style="edgeStyle=orthogonalEdgeStyle;rounded=0;orthogonalLoop=1;jettySize=auto;html=1;fontSize=15;exitX=0;exitY=0.5;exitDx=0;exitDy=0;" edge="1" parent="hc1PMB7uW3_f1QSLA8F5-1" source="24" target="31">
                    <mxGeometry relative="1" as="geometry"/>
                </mxCell>
                <mxCell id="24" value="Yes" style="ellipse;whiteSpace=wrap;html=1;fillColor=#CCFFCC;fontSize=15;" vertex="1" parent="hc1PMB7uW3_f1QSLA8F5-1">
                    <mxGeometry x="-649" y="-250" width="60" height="60" as="geometry"/>
                </mxCell>
                <mxCell id="25" value="" style="edgeStyle=orthogonalEdgeStyle;rounded=0;orthogonalLoop=1;jettySize=auto;html=1;fontSize=15;exitX=0.5;exitY=1;exitDx=0;exitDy=0;" edge="1" parent="hc1PMB7uW3_f1QSLA8F5-1" source="26" target="33">
                    <mxGeometry relative="1" as="geometry">
                        <mxPoint x="-340" y="-180" as="sourcePoint"/>
                    </mxGeometry>
                </mxCell>
                <mxCell id="26" value="No" style="ellipse;whiteSpace=wrap;html=1;fillColor=#FFCCCC;fontSize=15;" vertex="1" parent="hc1PMB7uW3_f1QSLA8F5-1">
                    <mxGeometry x="-476" y="-250" width="60" height="60" as="geometry"/>
                </mxCell>
                <mxCell id="27" style="edgeStyle=orthogonalEdgeStyle;rounded=0;orthogonalLoop=1;jettySize=auto;html=1;fontSize=15;" edge="1" parent="hc1PMB7uW3_f1QSLA8F5-1" source="29" target="35">
                    <mxGeometry relative="1" as="geometry"/>
                </mxCell>
                <mxCell id="28" style="edgeStyle=orthogonalEdgeStyle;rounded=0;orthogonalLoop=1;jettySize=auto;html=1;fontSize=15;" edge="1" parent="hc1PMB7uW3_f1QSLA8F5-1" source="29" target="37">
                    <mxGeometry relative="1" as="geometry"/>
                </mxCell>
                <mxCell id="29" value="&lt;b style=&quot;font-size: 15px;&quot;&gt;Have (or will) you collect any data associated with samples or sampling? (e.g. temperature, length, etc.)&lt;/b&gt;" style="whiteSpace=wrap;html=1;rounded=0;fillColor=#CCE5FF;fontSize=15;" vertex="1" parent="hc1PMB7uW3_f1QSLA8F5-1">
                    <mxGeometry x="-1078.5" y="-20" width="190" height="120" as="geometry"/>
                </mxCell>
                <mxCell id="30" style="edgeStyle=orthogonalEdgeStyle;rounded=0;orthogonalLoop=1;jettySize=auto;html=1;fontSize=15;" edge="1" parent="hc1PMB7uW3_f1QSLA8F5-1" source="31" target="29">
                    <mxGeometry relative="1" as="geometry"/>
                </mxCell>
                <mxCell id="31" value="Event core" style="rhombus;whiteSpace=wrap;html=1;fillColor=#E5CCFF;fontSize=15;" vertex="1" parent="hc1PMB7uW3_f1QSLA8F5-1">
                    <mxGeometry x="-1038" y="-160" width="109" height="110" as="geometry"/>
                </mxCell>
                <mxCell id="32" style="edgeStyle=orthogonalEdgeStyle;rounded=0;orthogonalLoop=1;jettySize=auto;html=1;exitX=0.5;exitY=1;exitDx=0;exitDy=0;fontSize=15;" edge="1" parent="hc1PMB7uW3_f1QSLA8F5-1" source="33" target="64">
                    <mxGeometry relative="1" as="geometry"/>
                </mxCell>
                <mxCell id="33" value="Occurrence Core" style="rhombus;whiteSpace=wrap;html=1;fillColor=#FFFFCC;fontSize=15;" vertex="1" parent="hc1PMB7uW3_f1QSLA8F5-1">
                    <mxGeometry x="-500.5" y="-160" width="109" height="110" as="geometry"/>
                </mxCell>
                <mxCell id="34" value="" style="edgeStyle=orthogonalEdgeStyle;rounded=0;orthogonalLoop=1;jettySize=auto;html=1;entryX=0.1;entryY=0.5;entryDx=0;entryDy=0;entryPerimeter=0;fontSize=15;exitX=0.5;exitY=1;exitDx=0;exitDy=0;" edge="1" parent="hc1PMB7uW3_f1QSLA8F5-1" source="35" target="78">
                    <mxGeometry relative="1" as="geometry">
                        <mxPoint x="-1002" y="218.5" as="sourcePoint"/>
                    </mxGeometry>
                </mxCell>
                <mxCell id="35" value="Yes" style="ellipse;whiteSpace=wrap;html=1;fillColor=#CCFFCC;fontSize=15;" vertex="1" parent="hc1PMB7uW3_f1QSLA8F5-1">
                    <mxGeometry x="-1227.5" y="130" width="60" height="60" as="geometry"/>
                </mxCell>
                <mxCell id="36" value="" style="edgeStyle=orthogonalEdgeStyle;rounded=0;orthogonalLoop=1;jettySize=auto;html=1;fontSize=15;entryX=0.5;entryY=0;entryDx=0;entryDy=0;entryPerimeter=0;" edge="1" parent="hc1PMB7uW3_f1QSLA8F5-1" source="37" target="76">
                    <mxGeometry relative="1" as="geometry"/>
                </mxCell>
                <mxCell id="37" value="No" style="ellipse;whiteSpace=wrap;html=1;fillColor=#FFCCCC;fontSize=15;" vertex="1" parent="hc1PMB7uW3_f1QSLA8F5-1">
                    <mxGeometry x="-874.5" y="130" width="60" height="60" as="geometry"/>
                </mxCell>
                <mxCell id="38" value="Event core" style="rhombus;whiteSpace=wrap;html=1;fillColor=#E5CCFF;fontSize=15;" vertex="1" parent="hc1PMB7uW3_f1QSLA8F5-1">
                    <mxGeometry x="-1393" y="249.5" width="109" height="110" as="geometry"/>
                </mxCell>
                <mxCell id="39" value="Event core" style="rhombus;whiteSpace=wrap;html=1;fillColor=#E5CCFF;fontSize=15;" vertex="1" parent="hc1PMB7uW3_f1QSLA8F5-1">
                    <mxGeometry x="-973.5" y="249.5" width="109" height="110" as="geometry"/>
                </mxCell>
                <mxCell id="40" style="edgeStyle=orthogonalEdgeStyle;rounded=0;orthogonalLoop=1;jettySize=auto;html=1;exitX=0.5;exitY=1;exitDx=0;exitDy=0;exitPerimeter=0;fontSize=15;" edge="1" parent="hc1PMB7uW3_f1QSLA8F5-1" source="54" target="44">
                    <mxGeometry relative="1" as="geometry">
                        <mxPoint x="164.5" y="44" as="sourcePoint"/>
                    </mxGeometry>
                </mxCell>
                <mxCell id="41" value="Occurrence Core" style="rhombus;whiteSpace=wrap;html=1;rounded=0;fillColor=#FFFFCC;fontSize=15;" vertex="1" parent="hc1PMB7uW3_f1QSLA8F5-1">
                    <mxGeometry x="-30" y="-183.5" width="109" height="110" as="geometry"/>
                </mxCell>
                <mxCell id="42" style="edgeStyle=orthogonalEdgeStyle;rounded=0;orthogonalLoop=1;jettySize=auto;html=1;" edge="1" parent="hc1PMB7uW3_f1QSLA8F5-1" source="44" target="46">
                    <mxGeometry relative="1" as="geometry"/>
                </mxCell>
                <mxCell id="43" style="edgeStyle=orthogonalEdgeStyle;rounded=0;orthogonalLoop=1;jettySize=auto;html=1;" edge="1" parent="hc1PMB7uW3_f1QSLA8F5-1" source="44" target="48">
                    <mxGeometry relative="1" as="geometry"/>
                </mxCell>
                <mxCell id="44" value="&lt;b style=&quot;font-size: 15px;&quot;&gt;Have (or will) you collect any data associated with samples or sampling? (e.g. temperature, length, etc.)&lt;/b&gt;" style="whiteSpace=wrap;html=1;rounded=0;fillColor=#CCE5FF;fontSize=15;" vertex="1" parent="hc1PMB7uW3_f1QSLA8F5-1">
                    <mxGeometry x="2.5" y="-33.5" width="190" height="120" as="geometry"/>
                </mxCell>
                <mxCell id="45" style="edgeStyle=orthogonalEdgeStyle;rounded=0;orthogonalLoop=1;jettySize=auto;html=1;exitX=0.5;exitY=1;exitDx=0;exitDy=0;entryX=0.1;entryY=0.5;entryDx=0;entryDy=0;entryPerimeter=0;fontSize=15;" edge="1" parent="hc1PMB7uW3_f1QSLA8F5-1" source="46" target="61">
                    <mxGeometry relative="1" as="geometry"/>
                </mxCell>
                <mxCell id="46" value="Yes" style="ellipse;whiteSpace=wrap;html=1;fillColor=#CCFFCC;fontSize=15;" vertex="1" parent="hc1PMB7uW3_f1QSLA8F5-1">
                    <mxGeometry x="-99" y="158.5" width="60" height="60" as="geometry"/>
                </mxCell>
                <mxCell id="47" value="" style="edgeStyle=orthogonalEdgeStyle;rounded=0;orthogonalLoop=1;jettySize=auto;html=1;entryX=0.5;entryY=0;entryDx=0;entryDy=0;entryPerimeter=0;fontSize=15;" edge="1" parent="hc1PMB7uW3_f1QSLA8F5-1" source="48" target="59">
                    <mxGeometry relative="1" as="geometry"/>
                </mxCell>
                <mxCell id="48" value="No" style="ellipse;whiteSpace=wrap;html=1;fillColor=#FFCCCC;fontSize=15;" vertex="1" parent="hc1PMB7uW3_f1QSLA8F5-1">
                    <mxGeometry x="248" y="158.5" width="60" height="60" as="geometry"/>
                </mxCell>
                <mxCell id="49" value="Occurrence &lt;br style=&quot;font-size: 15px;&quot;&gt;core" style="rhombus;whiteSpace=wrap;html=1;fillColor=#FFFFCC;fontSize=15;" vertex="1" parent="hc1PMB7uW3_f1QSLA8F5-1">
                    <mxGeometry x="-262" y="249.5" width="109" height="110" as="geometry"/>
                </mxCell>
                <mxCell id="50" value="Occurrence &lt;br style=&quot;font-size: 15px;&quot;&gt;core" style="rhombus;whiteSpace=wrap;html=1;fillColor=#FFFFCC;fontSize=15;" vertex="1" parent="hc1PMB7uW3_f1QSLA8F5-1">
                    <mxGeometry x="150" y="249.5" width="109" height="110" as="geometry"/>
                </mxCell>
                <mxCell id="51" value="DNA&lt;br style=&quot;font-size: 15px;&quot;&gt;derived data&lt;br&gt;extension" style="rhombus;whiteSpace=wrap;html=1;rounded=0;fillColor=#FFB570;fontSize=15;" vertex="1" parent="hc1PMB7uW3_f1QSLA8F5-1">
                    <mxGeometry x="116" y="-183.5" width="109" height="110" as="geometry"/>
                </mxCell>
                <mxCell id="52" style="edgeStyle=orthogonalEdgeStyle;rounded=0;orthogonalLoop=1;jettySize=auto;html=1;fontSize=15;" edge="1" parent="hc1PMB7uW3_f1QSLA8F5-1" source="53" target="7">
                    <mxGeometry relative="1" as="geometry"/>
                </mxCell>
                <mxCell id="53" value="Start" style="rhombus;whiteSpace=wrap;html=1;fillColor=#97D077;fontSize=18;" vertex="1" parent="hc1PMB7uW3_f1QSLA8F5-1">
                    <mxGeometry x="-410" y="-830" width="90" height="100" as="geometry"/>
                </mxCell>
                <mxCell id="54" value="" style="shape=cross;whiteSpace=wrap;html=1;fontSize=15;" vertex="1" parent="hc1PMB7uW3_f1QSLA8F5-1">
                    <mxGeometry x="82.5" y="-143.5" width="30" height="30" as="geometry"/>
                </mxCell>
                <mxCell id="55" value="eMoF&lt;br style=&quot;font-size: 15px;&quot;&gt;extension" style="rhombus;whiteSpace=wrap;html=1;rounded=0;fillColor=#FFD966;fontSize=15;" vertex="1" parent="hc1PMB7uW3_f1QSLA8F5-1">
                    <mxGeometry x="-1103" y="250" width="109" height="110" as="geometry"/>
                </mxCell>
                <mxCell id="56" value="eMoF&lt;br style=&quot;font-size: 15px;&quot;&gt;extension" style="rhombus;whiteSpace=wrap;html=1;rounded=0;fillColor=#FFD966;fontSize=15;" vertex="1" parent="hc1PMB7uW3_f1QSLA8F5-1">
                    <mxGeometry x="26.5" y="249.5" width="109" height="110" as="geometry"/>
                </mxCell>
                <mxCell id="57" value="" style="shape=cross;whiteSpace=wrap;html=1;fontSize=15;" vertex="1" parent="hc1PMB7uW3_f1QSLA8F5-1">
                    <mxGeometry x="-150" y="289.5" width="30" height="30" as="geometry"/>
                </mxCell>
                <mxCell id="58" value="" style="shape=cross;whiteSpace=wrap;html=1;fontSize=15;" vertex="1" parent="hc1PMB7uW3_f1QSLA8F5-1">
                    <mxGeometry x="-1281" y="289.5" width="30" height="30" as="geometry"/>
                </mxCell>
                <mxCell id="59" value="" style="shape=cross;whiteSpace=wrap;html=1;fontSize=15;" vertex="1" parent="hc1PMB7uW3_f1QSLA8F5-1">
                    <mxGeometry x="262" y="289.5" width="30" height="30" as="geometry"/>
                </mxCell>
                <mxCell id="60" value="" style="shape=cross;whiteSpace=wrap;html=1;fontSize=15;" vertex="1" parent="hc1PMB7uW3_f1QSLA8F5-1">
                    <mxGeometry x="-6" y="289.5" width="30" height="30" as="geometry"/>
                </mxCell>
                <mxCell id="61" value="" style="shape=curlyBracket;whiteSpace=wrap;html=1;rounded=1;labelPosition=left;verticalLabelPosition=middle;align=right;verticalAlign=middle;rotation=90;fontSize=15;" vertex="1" parent="hc1PMB7uW3_f1QSLA8F5-1">
                    <mxGeometry x="-79" y="86.5" width="20" height="310" as="geometry"/>
                </mxCell>
                <mxCell id="62" style="edgeStyle=orthogonalEdgeStyle;rounded=0;orthogonalLoop=1;jettySize=auto;html=1;entryX=0.5;entryY=0;entryDx=0;entryDy=0;fontSize=15;" edge="1" parent="hc1PMB7uW3_f1QSLA8F5-1" source="64" target="66">
                    <mxGeometry relative="1" as="geometry"/>
                </mxCell>
                <mxCell id="63" style="edgeStyle=orthogonalEdgeStyle;rounded=0;orthogonalLoop=1;jettySize=auto;html=1;fontSize=15;" edge="1" parent="hc1PMB7uW3_f1QSLA8F5-1" source="64" target="68">
                    <mxGeometry relative="1" as="geometry"/>
                </mxCell>
                <mxCell id="64" value="&lt;b style=&quot;font-size: 15px;&quot;&gt;Have (or will) you collect any data associated with samples or sampling? (e.g. temperature, length, etc.)&lt;/b&gt;" style="whiteSpace=wrap;html=1;rounded=0;fillColor=#CCE5FF;fontSize=15;" vertex="1" parent="hc1PMB7uW3_f1QSLA8F5-1">
                    <mxGeometry x="-541" y="-20" width="190" height="120" as="geometry"/>
                </mxCell>
                <mxCell id="65" value="" style="edgeStyle=orthogonalEdgeStyle;rounded=0;orthogonalLoop=1;jettySize=auto;html=1;entryX=0.5;entryY=0;entryDx=0;entryDy=0;entryPerimeter=0;fontSize=15;" edge="1" parent="hc1PMB7uW3_f1QSLA8F5-1" source="66" target="72">
                    <mxGeometry relative="1" as="geometry"/>
                </mxCell>
                <mxCell id="66" value="Yes" style="ellipse;whiteSpace=wrap;html=1;fillColor=#CCFFCC;fontSize=15;" vertex="1" parent="hc1PMB7uW3_f1QSLA8F5-1">
                    <mxGeometry x="-601" y="158.5" width="60" height="60" as="geometry"/>
                </mxCell>
                <mxCell id="67" value="" style="edgeStyle=orthogonalEdgeStyle;rounded=0;orthogonalLoop=1;jettySize=auto;html=1;fontSize=15;" edge="1" parent="hc1PMB7uW3_f1QSLA8F5-1" source="68" target="70">
                    <mxGeometry relative="1" as="geometry"/>
                </mxCell>
                <mxCell id="68" value="No" style="ellipse;whiteSpace=wrap;html=1;fillColor=#FFCCCC;fontSize=15;" vertex="1" parent="hc1PMB7uW3_f1QSLA8F5-1">
                    <mxGeometry x="-385" y="158.5" width="60" height="60" as="geometry"/>
                </mxCell>
                <mxCell id="69" value="Occurrence&lt;br style=&quot;font-size: 15px;&quot;&gt;core" style="rhombus;whiteSpace=wrap;html=1;fillColor=#FFFFCC;fontSize=15;" vertex="1" parent="hc1PMB7uW3_f1QSLA8F5-1">
                    <mxGeometry x="-698" y="249.5" width="109" height="110" as="geometry"/>
                </mxCell>
                <mxCell id="70" value="Occurrence&lt;br style=&quot;border-color: var(--border-color); font-size: 15px;&quot;&gt;core only" style="rhombus;whiteSpace=wrap;html=1;fillColor=#FFFFCC;fontSize=15;" vertex="1" parent="hc1PMB7uW3_f1QSLA8F5-1">
                    <mxGeometry x="-409.5" y="249.5" width="109" height="110" as="geometry"/>
                </mxCell>
                <mxCell id="71" value="eMoF&lt;br style=&quot;font-size: 15px;&quot;&gt;extension" style="rhombus;whiteSpace=wrap;html=1;rounded=0;fillColor=#FFD966;fontSize=15;" vertex="1" parent="hc1PMB7uW3_f1QSLA8F5-1">
                    <mxGeometry x="-552" y="249.5" width="109" height="110" as="geometry"/>
                </mxCell>
                <mxCell id="72" value="" style="shape=cross;whiteSpace=wrap;html=1;fontSize=15;" vertex="1" parent="hc1PMB7uW3_f1QSLA8F5-1">
                    <mxGeometry x="-586" y="289.5" width="30" height="30" as="geometry"/>
                </mxCell>
                <mxCell id="73" value="DNA&lt;br style=&quot;font-size: 15px;&quot;&gt;derived data&lt;br&gt;extension" style="rhombus;whiteSpace=wrap;html=1;rounded=0;fillColor=#FFB570;fontSize=15;" vertex="1" parent="hc1PMB7uW3_f1QSLA8F5-1">
                    <mxGeometry x="-118" y="249.5" width="109" height="110" as="geometry"/>
                </mxCell>
                <mxCell id="74" value="DNA&lt;br style=&quot;font-size: 15px;&quot;&gt;derived data&lt;br&gt;extension" style="rhombus;whiteSpace=wrap;html=1;rounded=0;fillColor=#FFB570;fontSize=15;" vertex="1" parent="hc1PMB7uW3_f1QSLA8F5-1">
                    <mxGeometry x="295" y="249.5" width="109" height="110" as="geometry"/>
                </mxCell>
                <mxCell id="75" value="Occurrence&lt;br style=&quot;font-size: 15px;&quot;&gt;extension" style="rhombus;whiteSpace=wrap;html=1;fillColor=#FFFFCC;fontSize=15;" vertex="1" parent="hc1PMB7uW3_f1QSLA8F5-1">
                    <mxGeometry x="-825" y="249.5" width="109" height="110" as="geometry"/>
                </mxCell>
                <mxCell id="76" value="" style="shape=cross;whiteSpace=wrap;html=1;fontSize=15;" vertex="1" parent="hc1PMB7uW3_f1QSLA8F5-1">
                    <mxGeometry x="-859.5" y="289.5" width="30" height="30" as="geometry"/>
                </mxCell>
                <mxCell id="77" value="Occurrence&lt;br style=&quot;font-size: 15px;&quot;&gt;extension" style="rhombus;whiteSpace=wrap;html=1;fillColor=#FFFFCC;fontSize=15;" vertex="1" parent="hc1PMB7uW3_f1QSLA8F5-1">
                    <mxGeometry x="-1248" y="249.5" width="109" height="110" as="geometry"/>
                </mxCell>
                <mxCell id="78" value="" style="shape=curlyBracket;whiteSpace=wrap;html=1;rounded=1;labelPosition=left;verticalLabelPosition=middle;align=right;verticalAlign=middle;rotation=90;fontSize=15;" vertex="1" parent="hc1PMB7uW3_f1QSLA8F5-1">
                    <mxGeometry x="-1207.5" y="80" width="20" height="310" as="geometry"/>
                </mxCell>
                <mxCell id="79" value="" style="shape=cross;whiteSpace=wrap;html=1;fontSize=15;" vertex="1" parent="hc1PMB7uW3_f1QSLA8F5-1">
                    <mxGeometry x="-1136.5" y="289.5" width="30" height="30" as="geometry"/>
                </mxCell>
            </root>
        </mxGraphModel>
    </diagram>
</mxfile>